<?xml version="1.0" standalone="no"?>
<!DOCTYPE svg PUBLIC "-//W3C//DTD SVG 20010904//EN"
 "http://www.w3.org/TR/2001/REC-SVG-20010904/DTD/svg10.dtd">
<svg version="1.0" xmlns="http://www.w3.org/2000/svg"
 width="552.000000pt" height="552.000000pt" viewBox="0 0 552.000000 552.000000"
 preserveAspectRatio="xMidYMid meet">
<metadata>
Created by potrace 1.14, written by Peter Selinger 2001-2017
</metadata>
<g transform="translate(0.000000,552.000000) scale(0.100000,-0.100000)"
fill="#000000" stroke="none">
<path d="M2740 5148 c-12 -27 -27 -48 -34 -48 -6 0 -4 -5 4 -10 13 -9 12 -12
-4 -25 -11 -8 -14 -15 -7 -15 7 0 9 -5 4 -12 -4 -7 -9 -20 -11 -28 -5 -28 -8
-35 -13 -45 -3 -5 -4 -20 -3 -32 0 -13 -2 -23 -5 -23 -4 0 -7 -8 -8 -17 -3
-66 -8 -99 -17 -105 -7 -5 -6 -8 2 -8 8 0 10 -5 5 -12 -4 -7 -8 -20 -8 -28 0
-8 -6 -14 -13 -12 -8 1 -11 -2 -7 -8 3 -6 10 -8 15 -5 4 3 6 -4 3 -15 -6 -22
-18 -26 -28 -9 -4 6 -13 8 -21 5 -8 -3 -14 -1 -14 5 0 6 -7 9 -15 5 -8 -3 -15
-1 -15 4 0 5 -6 7 -13 4 -8 -3 -27 0 -43 6 l-29 10 22 -19 c12 -10 23 -24 25
-31 2 -7 16 -26 32 -42 16 -15 25 -28 21 -28 -4 0 -2 -6 4 -13 11 -14 39 -87
46 -119 5 -23 -16 -14 -39 17 -10 14 -25 25 -33 25 -8 0 -11 5 -7 12 5 8 2 9
-9 5 -10 -3 -17 -2 -17 3 0 6 -7 10 -16 10 -8 0 -12 4 -9 10 3 6 -1 7 -10 4
-8 -4 -22 -1 -29 5 -10 8 -16 9 -21 1 -4 -7 -12 -7 -26 0 -13 7 -19 7 -19 0 0
-5 -5 -10 -11 -10 -5 0 -7 6 -3 13 6 10 4 10 -7 0 -7 -7 -21 -13 -30 -13 -9 0
-20 -7 -23 -16 -4 -9 -9 -14 -13 -11 -6 7 -36 -29 -46 -55 -3 -10 -12 -18 -19
-18 -9 0 -8 -3 2 -10 8 -5 10 -10 5 -10 -16 0 -23 -75 -12 -130 12 -56 64
-104 112 -103 32 0 75 14 75 24 0 5 7 9 17 9 9 0 13 3 10 6 -3 4 2 18 13 32
11 13 17 28 14 33 -3 5 0 9 6 9 6 0 8 5 5 10 -3 6 -3 16 2 23 4 6 8 17 8 22 1
6 7 9 14 7 7 -1 10 2 7 7 -12 19 12 20 29 1 11 -13 14 -20 6 -20 -7 0 -9 -5
-6 -10 4 -6 10 -8 14 -5 5 2 8 -6 7 -18 -1 -12 1 -24 5 -27 4 -3 8 -18 10 -35
2 -16 7 -36 12 -42 6 -9 5 -13 -2 -13 -7 0 -9 -4 -6 -10 12 -20 18 -66 27
-210 2 -33 -12 -140 -23 -167 -6 -15 -10 -28 -10 -28 0 0 -2 -10 -5 -22 -4
-13 -11 -23 -16 -23 -5 0 -6 -4 -3 -10 3 -5 1 -10 -6 -10 -7 0 -9 -3 -6 -7 6
-5 -30 -37 -43 -38 -3 0 -10 -3 -16 -7 -15 -10 -79 9 -94 27 -7 8 -17 15 -22
15 -12 0 -74 72 -70 83 1 4 -2 6 -8 2 -9 -5 -14 7 -11 27 0 4 -7 4 -16 1 -11
-4 -14 -3 -9 5 12 20 -2 13 -29 -13 -14 -14 -25 -31 -25 -37 0 -5 -7 -8 -15
-4 -9 3 -15 0 -15 -10 0 -8 -4 -13 -9 -9 -5 3 -16 -3 -23 -12 -7 -10 -20 -19
-28 -21 -8 -2 -16 -8 -18 -13 -7 -17 -21 -9 -16 9 5 16 5 16 -6 0 -25 -39
-100 -13 -167 59 -40 42 -48 55 -44 76 1 5 -2 6 -7 3 -11 -7 -45 51 -37 64 4
6 1 9 -7 8 -23 -5 -14 24 13 45 33 24 100 33 129 17 15 -8 20 -8 16 -1 -4 6
-3 11 3 11 5 0 12 -4 15 -9 9 -14 45 -20 53 -9 3 7 1 8 -5 4 -7 -4 -12 -2 -12
3 0 21 -3 26 -21 39 -11 7 -19 18 -19 23 0 14 -26 39 -39 39 -6 0 -11 5 -11
10 0 6 -7 10 -15 10 -8 0 -15 5 -15 11 0 5 -4 7 -10 4 -5 -3 -16 -3 -22 2 -7
4 -17 8 -23 9 -5 1 -14 3 -20 4 -26 6 -46 -1 -39 -12 6 -10 5 -10 -7 -1 -12
10 -18 10 -27 1 -7 -7 -12 -9 -12 -5 0 4 -14 0 -31 -9 -17 -8 -28 -11 -25 -5
4 6 0 11 -9 11 -9 0 -13 5 -10 10 3 6 1 10 -5 10 -6 0 -8 5 -5 10 3 6 1 10 -4
10 -6 0 -11 8 -11 17 0 9 -3 14 -6 10 -3 -3 -21 10 -40 29 -20 21 -39 32 -45
28 -7 -4 -9 -3 -6 3 6 9 -52 50 -65 45 -5 -1 -8 2 -8 6 0 5 -6 9 -12 10 -7 0
-39 4 -72 7 l-59 7 7 -29 c4 -15 16 -37 27 -49 10 -11 19 -23 19 -27 0 -4 17
-33 37 -64 21 -32 38 -60 38 -63 0 -3 4 -11 8 -17 5 -7 5 -13 1 -13 -4 0 1 -7
12 -15 10 -8 15 -15 10 -15 -5 0 1 -8 12 -19 12 -10 18 -21 14 -25 -4 -4 1
-14 12 -21 10 -8 19 -25 20 -38 0 -14 4 -23 8 -21 4 3 16 -13 28 -35 11 -22
31 -56 45 -77 13 -20 22 -40 19 -45 -3 -5 -1 -9 5 -9 6 0 22 -21 37 -47 65
-113 134 -229 146 -243 7 -8 13 -17 12 -20 -1 -3 5 -15 13 -27 8 -12 11 -28 7
-34 -5 -8 -3 -9 6 -4 8 5 11 3 8 -6 -3 -8 -16 -14 -30 -14 -14 -1 -32 -6 -39
-12 -8 -6 -28 -13 -44 -15 -17 -2 -33 -7 -36 -11 -4 -5 -24 -10 -47 -10 -22
-1 -38 -5 -36 -9 5 -8 -83 -38 -90 -30 -3 3 -6 -1 -6 -8 0 -7 -3 -11 -6 -7 -4
3 -19 0 -35 -9 -16 -8 -29 -12 -29 -8 0 4 -6 1 -13 -5 -8 -6 -17 -8 -20 -4 -4
3 -7 1 -7 -5 0 -7 -9 -12 -20 -12 -11 0 -20 -5 -20 -11 0 -6 -9 -9 -20 -6 -11
3 -20 1 -20 -3 0 -5 -12 -11 -27 -15 -64 -14 -66 -20 -65 -182 1 -81 2 -172 4
-201 2 -28 -1 -52 -6 -52 -5 0 -4 -6 2 -12 5 -7 9 -26 8 -43 -1 -16 2 -40 6
-52 5 -15 3 -23 -4 -23 -6 0 -3 -10 8 -22 10 -12 14 -18 8 -15 -8 5 -11 -4 -9
-26 2 -17 4 -32 5 -32 1 0 3 -18 5 -40 1 -22 6 -53 10 -70 8 -28 7 -29 -11
-15 -19 14 -19 14 -1 -7 10 -11 20 -38 23 -59 3 -35 11 -80 20 -124 7 -31 17
-96 19 -122 1 -15 7 -34 14 -42 7 -8 11 -20 10 -28 -2 -7 1 -22 7 -33 6 -11
10 -27 9 -35 0 -8 4 -18 10 -22 6 -5 4 -8 -4 -8 -11 0 -9 -4 5 -15 10 -8 15
-15 9 -15 -5 0 -3 -5 5 -10 12 -8 12 -10 -5 -10 -19 -1 -19 -1 -2 -11 9 -6 15
-14 12 -20 -4 -5 -2 -9 3 -9 5 0 9 -6 10 -12 6 -45 10 -58 21 -72 7 -9 11 -23
7 -31 -3 -9 0 -15 9 -15 8 0 12 -8 10 -20 -2 -11 1 -20 7 -20 6 0 8 -9 5 -20
-3 -11 0 -18 7 -17 6 1 10 -6 8 -17 -2 -12 1 -16 9 -10 8 5 10 3 5 -5 -5 -7 0
-21 9 -31 9 -10 14 -24 10 -29 -3 -6 -1 -11 5 -11 6 0 9 -4 6 -9 -4 -5 -2 -11
2 -13 4 -1 23 -33 42 -70 18 -38 37 -68 41 -68 5 0 5 -7 2 -17 -5 -12 -3 -14
7 -8 10 6 12 4 7 -8 -3 -9 0 -18 9 -21 14 -5 41 -63 36 -78 -1 -5 4 -7 11 -5
7 1 12 -7 11 -20 0 -12 2 -22 5 -21 22 2 32 -4 27 -17 -3 -8 -2 -14 2 -14 20
3 23 -3 11 -18 -11 -13 -11 -15 -1 -9 15 9 44 -23 35 -38 -4 -5 -1 -6 4 -3 6
4 20 -9 32 -28 11 -19 25 -35 32 -35 6 0 8 -7 5 -17 -4 -10 -4 -14 0 -10 9 9
35 -13 28 -24 -3 -5 3 -9 12 -9 10 0 15 -3 12 -6 -9 -8 53 -65 64 -58 12 7 6
-19 -7 -29 -6 -5 -3 -7 7 -4 10 4 23 -4 34 -18 10 -13 21 -22 26 -19 4 3 8 1
8 -4 0 -14 55 -65 180 -168 25 -20 44 -41 43 -45 -2 -5 3 -6 11 -3 7 3 28 -9
47 -27 18 -17 38 -32 44 -33 17 -2 115 -69 115 -78 0 -4 3 -7 8 -6 10 3 72
-25 72 -33 0 -4 11 -10 25 -13 14 -4 23 -11 19 -17 -3 -6 2 -9 12 -7 11 2 18
-2 17 -9 -2 -7 4 -10 12 -7 9 4 22 0 31 -7 17 -14 34 -19 74 -23 28 -3 80 14
80 27 0 4 5 5 12 1 8 -5 9 -2 4 11 -5 15 -4 16 9 5 12 -10 15 -10 15 0 0 7 8
10 20 7 11 -3 23 0 27 5 3 7 1 8 -5 4 -7 -4 -12 -2 -12 3 0 10 14 15 33 12 4
0 7 4 7 9 0 6 6 10 13 10 7 0 23 9 35 20 12 12 22 18 22 15 0 -7 78 42 114 72
16 13 35 22 42 19 8 -3 13 0 11 7 -1 7 6 11 15 11 10 -1 16 2 13 6 -3 5 11 18
30 30 19 12 35 26 35 31 0 6 5 7 10 4 6 -3 13 1 16 10 4 10 14 15 26 12 15 -4
17 -2 9 7 -8 9 -4 16 14 26 13 7 22 17 19 21 -2 4 5 6 16 4 11 -2 18 0 16 4
-3 5 3 16 14 26 11 10 17 23 13 29 -4 6 2 4 12 -4 11 -9 16 -10 11 -2 -4 7 -2
12 4 12 6 0 8 4 5 10 -3 5 1 10 9 10 9 0 16 5 16 10 0 6 8 10 17 10 9 0 13 3
10 7 -4 3 7 19 23 35 17 15 30 33 30 39 0 5 4 8 9 4 5 -3 12 4 16 15 6 18 17
25 38 21 5 -1 5 3 2 10 -4 6 1 19 11 29 33 33 43 48 37 54 -6 5 12 10 29 7 4
0 5 6 2 14 -4 8 -1 15 4 15 6 0 14 9 17 20 4 11 11 17 17 14 7 -4 8 -2 4 4 -4
7 3 23 16 36 13 13 24 30 26 37 2 8 8 16 13 17 5 2 7 8 3 13 -3 5 2 9 11 9 10
0 13 -5 9 -12 -4 -7 -3 -8 5 -4 8 6 9 11 1 20 -7 10 -4 20 11 40 11 15 19 33
16 40 -4 10 2 13 19 11 19 -2 22 0 13 11 -8 10 -8 14 0 14 6 0 10 3 9 8 -4 14
63 142 72 137 6 -3 7 0 4 8 -3 8 7 41 22 73 14 32 30 68 35 79 33 79 42 103
45 124 2 13 9 28 16 32 11 7 11 9 0 9 -10 0 -8 8 6 28 14 20 18 32 11 44 -7
12 -5 19 7 26 9 5 15 12 15 15 -1 4 -1 8 0 10 0 1 2 17 5 36 2 19 9 39 14 46
5 7 8 14 5 17 -3 2 0 20 5 39 6 19 13 50 16 69 3 19 7 42 10 50 3 8 8 33 11
55 3 22 10 43 17 47 8 6 7 8 -2 8 -8 0 -10 5 -6 12 4 6 9 36 11 67 2 30 9 59
16 63 9 6 9 8 -1 8 -7 0 -10 5 -7 11 11 17 13 59 4 65 -5 3 -2 12 6 21 11 11
13 19 5 27 -5 7 -7 15 -4 19 17 16 22 539 5 545 -6 2 -9 8 -6 13 4 5 -1 6 -9
3 -9 -3 -16 -1 -16 5 0 6 -6 8 -14 5 -7 -3 -20 2 -29 10 -8 8 -17 12 -21 9 -3
-4 -6 -2 -6 3 0 5 -12 10 -26 11 -15 0 -30 6 -34 13 -4 6 -11 10 -16 9 -21 -4
-35 2 -29 11 4 6 -1 7 -11 3 -12 -4 -15 -3 -10 5 5 8 2 10 -8 6 -9 -3 -24 -3
-33 1 -22 10 -27 11 -83 27 -25 7 -48 17 -51 22 -4 5 -11 6 -17 2 -6 -3 -13
-2 -17 4 -4 6 -10 8 -15 5 -4 -3 -10 2 -14 10 -3 8 -12 12 -21 9 -20 -8 -67 4
-60 15 3 5 -4 7 -15 4 -53 -14 -51 4 13 111 33 57 66 102 71 99 5 -3 6 -1 2 5
-8 13 17 56 27 46 3 -3 4 2 3 12 -3 20 10 37 34 47 9 3 10 6 3 6 -7 1 -10 8
-7 16 4 8 11 12 17 8 5 -3 7 -1 4 4 -4 6 2 22 13 36 11 14 20 30 20 36 0 6 5
11 12 11 6 0 8 3 5 6 -4 4 2 19 12 33 10 14 33 54 52 89 18 34 37 62 41 62 5
0 8 7 8 15 0 8 5 15 11 15 5 0 7 5 4 10 -3 6 -1 10 6 10 7 0 9 3 6 6 -4 4 1
14 11 23 9 9 18 21 19 27 2 13 73 136 82 144 9 7 31 48 42 77 l9 25 -57 -5
c-70 -6 -86 -9 -94 -20 -5 -7 -26 -14 -52 -16 -5 -1 -5 -5 -2 -11 3 -5 0 -10
-7 -10 -8 0 -28 -13 -46 -30 -18 -16 -38 -30 -43 -30 -6 0 -8 -4 -4 -9 3 -6
-4 -15 -16 -21 -11 -7 -18 -14 -16 -17 3 -2 -4 -14 -15 -25 -16 -16 -24 -18
-46 -9 -15 6 -38 12 -52 15 -14 2 -29 5 -35 6 -24 5 -46 -1 -39 -11 4 -7 -1
-7 -16 1 -15 8 -20 8 -16 1 7 -11 -6 -15 -33 -12 -7 2 -10 -2 -6 -8 3 -6 1
-11 -6 -11 -7 0 -32 -21 -57 -46 -34 -36 -41 -49 -31 -55 10 -6 7 -9 -10 -9
-31 0 -21 -11 13 -14 14 -2 23 1 20 5 -6 11 -5 11 66 14 30 1 61 -2 68 -7 6
-6 12 -8 12 -5 0 3 11 -5 25 -17 l26 -24 -22 -36 c-11 -20 -26 -33 -32 -29 -5
3 -7 1 -4 -5 10 -15 -3 -42 -19 -42 -8 0 -13 -4 -11 -9 4 -15 -66 -92 -98
-107 -64 -30 -157 2 -230 80 -29 31 -73 57 -60 36 3 -6 1 -10 -4 -10 -6 0 -10
-3 -9 -7 4 -13 -35 -53 -52 -54 -10 0 -11 -2 -3 -6 15 -6 -8 -33 -28 -33 -7 0
-9 -3 -6 -6 10 -10 -63 -46 -79 -40 -8 3 -14 2 -14 -2 0 -4 -9 -8 -19 -8 -11
0 -17 4 -15 8 3 4 -1 8 -9 8 -15 0 -56 43 -60 63 -1 6 -4 14 -7 17 -20 20 -28
48 -17 60 9 10 9 11 0 6 -7 -4 -12 1 -13 11 -1 38 -8 118 -10 123 -6 13 -5 37
2 58 5 15 4 21 -2 17 -6 -4 -7 2 -2 17 5 13 8 38 8 56 -1 17 1 32 4 32 3 0 6
8 7 18 1 9 2 32 4 50 1 17 5 32 10 32 4 0 5 10 1 22 -3 11 -1 19 4 16 5 -3 10
10 11 30 1 20 6 38 12 40 5 2 7 10 4 19 -4 11 -2 14 5 9 7 -4 12 -2 12 5 0 8
4 8 16 -2 8 -7 13 -20 11 -30 -3 -11 0 -16 7 -13 6 2 12 -4 13 -14 3 -33 31
-92 48 -98 8 -3 15 -13 15 -21 0 -8 4 -11 10 -8 5 3 25 2 44 -3 21 -6 38 -6
44 0 5 5 18 10 30 11 12 0 19 3 17 5 -2 3 7 20 22 38 23 30 25 41 21 99 -2 36
0 65 5 65 5 0 1 7 -8 16 -8 9 -25 34 -36 55 -10 21 -26 39 -34 39 -8 0 -15 5
-15 11 0 5 -8 9 -17 8 -10 -1 -25 0 -33 4 -38 14 -50 16 -50 8 0 -5 -10 -7
-23 -6 -34 4 -90 -22 -81 -37 5 -10 4 -10 -6 -2 -9 9 -21 3 -51 -28 -26 -27
-39 -35 -39 -24 0 9 3 16 8 16 4 0 8 10 8 23 2 33 42 117 56 117 6 0 9 3 5 6
-3 3 3 16 14 28 12 11 25 29 31 39 8 16 6 18 -19 16 -15 -2 -34 1 -42 5 -9 6
-12 5 -8 -1 4 -6 -5 -14 -21 -18 -15 -4 -27 -5 -28 -3 0 2 -8 -3 -17 -11 -15
-12 -17 -11 -17 8 0 15 4 20 13 16 6 -4 5 -1 -3 7 -16 14 -16 14 -25 82 -3 26
-9 64 -14 84 -4 21 -7 46 -5 57 2 11 -1 22 -6 25 -4 3 -11 22 -14 43 -3 21
-13 54 -21 73 -8 20 -12 40 -9 45 3 5 1 9 -5 9 -5 0 -14 12 -19 28 l-9 27 -23
-47z"/>
</g>
</svg>
